<svg id="visual" viewBox="0 0 900 450" width="900" height="450" xmlns="http://www.w3.org/2000/svg" xmlns:xlink="http://www.w3.org/1999/xlink" version="1.1"><path d="M0 275L18.8 276.7C37.7 278.3 75.3 281.7 112.8 285.2C150.3 288.7 187.7 292.3 225.2 291.2C262.7 290 300.3 284 337.8 283.2C375.3 282.3 412.7 286.7 450.2 284.3C487.7 282 525.3 273 562.8 275.5C600.3 278 637.7 292 675.2 292C712.7 292 750.3 278 787.8 274.7C825.3 271.3 862.7 278.7 881.3 282.3L900 286L900 451L881.3 451C862.7 451 825.3 451 787.8 451C750.3 451 712.7 451 675.2 451C637.7 451 600.3 451 562.8 451C525.3 451 487.7 451 450.2 451C412.7 451 375.3 451 337.8 451C300.3 451 262.7 451 225.2 451C187.7 451 150.3 451 112.8 451C75.3 451 37.7 451 18.8 451L0 451Z" fill="#37342f"></path><path d="M0 335L18.8 334.5C37.7 334 75.3 333 112.8 330.2C150.3 327.3 187.7 322.7 225.2 318C262.7 313.3 300.3 308.7 337.8 311.5C375.3 314.3 412.7 324.7 450.2 325.3C487.7 326 525.3 317 562.8 316.3C600.3 315.7 637.7 323.3 675.2 323C712.7 322.7 750.3 314.3 787.8 314C825.3 313.7 862.7 321.3 881.3 325.2L900 329L900 451L881.3 451C862.7 451 825.3 451 787.8 451C750.3 451 712.7 451 675.2 451C637.7 451 600.3 451 562.8 451C525.3 451 487.7 451 450.2 451C412.7 451 375.3 451 337.8 451C300.3 451 262.7 451 225.2 451C187.7 451 150.3 451 112.8 451C75.3 451 37.7 451 18.8 451L0 451Z" fill="#5e5c58"></path><path d="M0 357L18.8 353.8C37.7 350.7 75.3 344.3 112.8 340.3C150.3 336.3 187.7 334.7 225.2 334.5C262.7 334.3 300.3 335.7 337.8 341C375.3 346.3 412.7 355.7 450.2 356.7C487.7 357.7 525.3 350.3 562.8 345.7C600.3 341 637.7 339 675.2 337.5C712.7 336 750.3 335 787.8 335.2C825.3 335.3 862.7 336.7 881.3 337.3L900 338L900 451L881.3 451C862.7 451 825.3 451 787.8 451C750.3 451 712.7 451 675.2 451C637.7 451 600.3 451 562.8 451C525.3 451 487.7 451 450.2 451C412.7 451 375.3 451 337.8 451C300.3 451 262.7 451 225.2 451C187.7 451 150.3 451 112.8 451C75.3 451 37.7 451 18.8 451L0 451Z" fill="#898784"></path><path d="M0 382L18.8 384.3C37.7 386.7 75.3 391.3 112.8 393.5C150.3 395.7 187.7 395.3 225.2 390.2C262.7 385 300.3 375 337.8 373.3C375.3 371.7 412.7 378.3 450.2 383.2C487.7 388 525.3 391 562.8 392.7C600.3 394.3 637.7 394.7 675.2 394.2C712.7 393.7 750.3 392.3 787.8 389.3C825.3 386.3 862.7 381.7 881.3 379.3L900 377L900 451L881.3 451C862.7 451 825.3 451 787.8 451C750.3 451 712.7 451 675.2 451C637.7 451 600.3 451 562.8 451C525.3 451 487.7 451 450.2 451C412.7 451 375.3 451 337.8 451C300.3 451 262.7 451 225.2 451C187.7 451 150.3 451 112.8 451C75.3 451 37.7 451 18.8 451L0 451Z" fill="#b6b5b3"></path><path d="M0 403L18.8 405.5C37.7 408 75.3 413 112.8 414.7C150.3 416.3 187.7 414.7 225.2 415.8C262.7 417 300.3 421 337.8 420.8C375.3 420.7 412.7 416.3 450.2 416C487.7 415.7 525.3 419.3 562.8 421.3C600.3 423.3 637.7 423.7 675.2 423.8C712.7 424 750.3 424 787.8 424.3C825.3 424.7 862.7 425.3 881.3 425.7L900 426L900 451L881.3 451C862.7 451 825.3 451 787.8 451C750.3 451 712.7 451 675.2 451C637.7 451 600.3 451 562.8 451C525.3 451 487.7 451 450.2 451C412.7 451 375.3 451 337.8 451C300.3 451 262.7 451 225.2 451C187.7 451 150.3 451 112.8 451C75.3 451 37.7 451 18.8 451L0 451Z" fill="#e5e5e5"></path></svg>