<svg width="129" height="31" viewBox="0 0 129 31" fill="none" xmlns="http://www.w3.org/2000/svg">
<path d="M41.9534 5.34839H45.4263L50.0123 22.0434H50.0844L54.588 5.34839H57.9373L62.482 22.0434H62.5644L67.1504 5.34839H70.6131L64.1824 25.4751H60.8331L56.2781 8.86257H56.2059L51.7436 25.4751H48.3943L41.9534 5.34839Z" fill="#071A2D"/>
<path d="M87.2983 25.4756H84.1345V22.9508H84.0521C82.7948 24.847 80.5482 26.0424 77.2298 26.0424C73.1076 26.0424 70.593 23.7134 70.593 20.3126C70.593 15.7369 73.9938 14.5518 79.1981 13.5727C82.5887 12.9338 84.1345 12.5422 84.1345 10.4811C84.1345 8.90433 83.2688 7.55431 80.0123 7.55431C76.1786 7.55431 74.9213 8.6673 74.7152 11.5838H71.5617C71.7575 7.71919 74.169 4.80273 80.0123 4.80273C83.8356 4.80273 87.2261 6.29703 87.2261 11.1509V25.4756H87.2983ZM84.0727 17.7053V14.3457C83.4749 14.9434 81.5478 15.4896 79.4146 15.9224C75.5088 16.7571 73.695 17.7465 73.695 20.1477C73.695 22.1263 74.8801 23.2393 77.4771 23.2393C81.3005 23.2703 84.1448 21.5698 84.1448 17.7053H84.0727Z" fill="#071A2D"/>
<path d="M90.3894 0H93.5532V25.4753H90.3894V0Z" fill="#071A2D"/>
<path d="M105.662 26.1144C99.4789 26.1144 95.7896 21.7758 95.7896 15.4997C95.7896 9.22364 99.4995 4.88501 105.662 4.88501C111.825 4.88501 115.483 9.27517 115.483 15.4585C115.483 21.6418 111.773 26.1144 105.662 26.1144ZM105.662 23.3525C110.155 23.3525 112.33 19.8074 112.33 15.4997C112.33 11.192 110.155 7.64689 105.662 7.64689C101.169 7.64689 98.9533 11.2023 98.9533 15.4997C98.9533 19.7971 101.118 23.3525 105.662 23.3525Z" fill="#071A2D"/>
<path d="M128.161 4.91559V8.06909H128.088C123.709 7.358 120.668 10.4394 120.668 14.7368V25.4751H117.505V5.34843H120.668V9.33666H120.741C121.771 6.68814 123.43 4.80223 126.306 4.80223C126.926 4.79265 127.546 4.83054 128.161 4.91559V4.91559Z" fill="#071A2D"/>
<path d="M30.7311 8.50083V5.66681L21.8477 8.94397L25.0528 0.266708L25.1352 0.050293H22.2909L19.5187 8.49052L16.7465 0.163654V0.050293H14.0464L11.2124 8.49052L8.49176 0.163654V0.050293H5.62682L8.90398 8.95428L0.226719 5.74925L0 5.66681V8.50083L8.44024 11.2627L0.113362 14.0452H0V16.7143L8.44024 19.5793L0.113362 22.2999H0V25.134L8.90398 21.8568L5.70927 30.5134L5.62682 30.7299H8.46084L11.2124 22.2999L14.0052 30.6165V30.7299H16.7053L19.5187 22.2999L22.26 30.6165V30.7299H25.1043L21.858 21.898L30.5044 25.0927L30.7311 25.1752V22.3412L22.2909 19.5793L30.6177 16.7968H30.7311V14.0864L22.2909 11.2627L30.6177 8.54205L30.7311 8.50083ZM27.2581 15.4571L18.4675 18.4663L15.7675 26.1748L15.3656 27.3084L12.346 18.5487L4.39016 15.7559L3.47296 15.4571L12.243 12.3654L15.3346 3.48203L18.3439 12.2727L25.465 14.7769L27.2581 15.4571Z" fill="#298CE7"/>
</svg>
