<svg id="visual" viewBox="0 0 900 450" xmlns="http://www.w3.org/2000/svg">
    <path
      d="M0 380L10 381.2C20 382.3 40 384.7 60 388.5C80 392.3 100 397.7 120 393.3C140 389 160 375 180 370.8C200 366.7 220 372.3 240 380.3C260 388.3 280 398.7 300 398.8C320 399 340 389 360 381.5C380 374 400 369 420 365.5C440 362 460 360 480 368.3C500 376.7 520 395.3 540 397.7C560 400 580 386 600 379.7C620 373.3 640 374.7 660 380.2C680 385.7 700 395.3 720 401.8C740 408.3 760 411.7 780 409.3C800 407 820 399 840 396C860 393 880 395 890 396L900 397L900 451L890 451C880 451 860 451 840 451C820 451 800 451 780 451C760 451 740 451 720 451C700 451 680 451 660 451C640 451 620 451 600 451C580 451 560 451 540 451C520 451 500 451 480 451C460 451 440 451 420 451C400 451 380 451 360 451C340 451 320 451 300 451C280 451 260 451 240 451C220 451 200 451 180 451C160 451 140 451 120 451C100 451 80 451 60 451C40 451 20 451 10 451L0 451Z"
      fill="#37342f"
      fill-opacity="0.8"
      stroke-linecap="round"
      stroke-linejoin="miter"
    ></path>
  </svg>
